<svg aria-hidden="true" style="position: absolute; width: 0; height: 0; overflow: hidden;" version="1.1" xmlns="http://www.w3.org/2000/svg" xmlns:xlink="http://www.w3.org/1999/xlink">
<defs>
<symbol id="icon-emoji-happy" viewBox="0 0 20 20">
<path d="M10 0.4c-5.302 0-9.6 4.298-9.6 9.6s4.298 9.6 9.6 9.6c5.301 0 9.6-4.298 9.6-9.601 0-5.301-4.299-9.599-9.6-9.599zM10 17.599c-4.197 0-7.6-3.402-7.6-7.6s3.402-7.599 7.6-7.599c4.197 0 7.601 3.402 7.601 7.6s-3.404 7.599-7.601 7.599zM7.501 9.75c0.828 0 1.499-0.783 1.499-1.75s-0.672-1.75-1.5-1.75-1.5 0.783-1.5 1.75 0.672 1.75 1.501 1.75zM12.5 9.75c0.829 0 1.5-0.783 1.5-1.75s-0.672-1.75-1.5-1.75-1.5 0.784-1.5 1.75 0.672 1.75 1.5 1.75zM14.341 11.336c-0.363-0.186-0.815-0.043-1.008 0.32-0.034 0.066-0.869 1.593-3.332 1.593-2.451 0-3.291-1.513-3.333-1.592-0.188-0.365-0.632-0.514-1.004-0.329-0.37 0.186-0.52 0.636-0.335 1.007 0.050 0.099 1.248 2.414 4.672 2.414 3.425 0 4.621-2.316 4.67-2.415 0.184-0.367 0.036-0.81-0.33-0.998z"></path>
</symbol>
<symbol id="icon-graduation-cap" viewBox="0 0 20 20">
<path d="M3.302 12.238c0.464 1.879 1.054 2.701 3.022 3.562 1.969 0.86 2.904 1.8 3.676 1.8s1.648-0.822 3.616-1.684c1.969-0.861 1.443-1.123 1.907-3.002l-5.523 2.686-6.698-3.362zM19.511 7.336l-8.325-4.662c-0.652-0.365-1.72-0.365-2.372 0l-8.326 4.662c-0.652 0.365-0.652 0.963 0 1.328l8.325 4.662c0.652 0.365 1.72 0.365 2.372 0l5.382-3.014-5.836-1.367c-0.225 0.055-0.472 0.086-0.731 0.086-1.052 0-1.904-0.506-1.904-1.131 0-0.627 0.853-1.133 1.904-1.133 0.816 0 1.51 0.307 1.78 0.734l6.182 2.029 1.549-0.867c0.651-0.364 0.651-0.962 0-1.327zM16.967 16.17c-0.065 0.385 1.283 1.018 1.411-0.107 0.579-5.072-0.416-6.531-0.416-6.531l-1.395 0.781c0-0.001 1.183 1.125 0.4 5.857z"></path>
</symbol>
<symbol id="icon-location-pin" viewBox="0 0 20 20">
<path d="M10 2.009c-2.762 0-5 2.229-5 4.99 0 4.774 5 11 5 11s5-6.227 5-11c0-2.76-2.238-4.99-5-4.99zM10 9.76c-1.492 0-2.7-1.209-2.7-2.7s1.208-2.7 2.7-2.7c1.49 0 2.699 1.209 2.699 2.7s-1.209 2.7-2.699 2.7z"></path>
</symbol>
<symbol id="icon-mail" viewBox="0 0 20 20">
<path d="M1.574 5.286c0.488 0.262 7.248 3.894 7.5 4.029s0.578 0.199 0.906 0.199c0.328 0 0.654-0.064 0.906-0.199s7.012-3.767 7.5-4.029c0.489-0.263 0.951-1.286 0.054-1.286h-16.919c-0.897 0-0.435 1.023 0.053 1.286zM18.613 7.489c-0.555 0.289-7.387 3.849-7.727 4.027s-0.578 0.199-0.906 0.199-0.566-0.021-0.906-0.199-7.133-3.739-7.688-4.028c-0.39-0.204-0.386 0.035-0.386 0.219s0 7.293 0 7.293c0 0.42 0.566 1 1 1h16c0.434 0 1-0.58 1-1 0 0 0-7.108 0-7.292s0.004-0.423-0.387-0.219z"></path>
</symbol>
<symbol id="icon-medal" viewBox="0 0 20 20">
<path d="M10 10c0.528 0 1.026 0.104 1.504 0.256l-6.077-9.115c-0.059-0.088-0.157-0.141-0.263-0.141h-3.556c-0.117 0-0.188 0.131-0.122 0.229l6.231 9.347c0.687-0.356 1.456-0.576 2.283-0.576zM18.392 1h-3.556c-0.106 0-0.204 0.053-0.263 0.141l-3.823 5.734 2 3 5.764-8.646c0.065-0.098-0.005-0.229-0.122-0.229zM10 11c-2.209 0-4 1.791-4 4s1.791 4 4 4 4-1.791 4-4c0-2.209-1.791-4-4-4zM12.112 15.117c0.062 0.064 0.052 0.158-0.022 0.208s-0.095 0.153-0.049 0.229c0.047 0.076 0.018 0.165-0.065 0.199s-0.125 0.13-0.095 0.214-0.017 0.165-0.104 0.181-0.149 0.101-0.137 0.189-0.051 0.158-0.14 0.155c-0.089-0.003-0.167 0.068-0.174 0.156s-0.083 0.144-0.169 0.123-0.178 0.031-0.203 0.117-0.111 0.124-0.191 0.085c-0.080-0.039-0.18-0.006-0.222 0.072s-0.134 0.098-0.205 0.043-0.175-0.044-0.232 0.024-0.151 0.068-0.209 0-0.162-0.079-0.232-0.024-0.162 0.035-0.205-0.043-0.142-0.111-0.222-0.072c-0.080 0.039-0.166 0-0.191-0.085s-0.116-0.138-0.203-0.117-0.163-0.034-0.169-0.123-0.084-0.159-0.173-0.157c-0.089 0.003-0.152-0.067-0.14-0.155s-0.050-0.173-0.137-0.189-0.135-0.097-0.104-0.181-0.013-0.18-0.095-0.214-0.111-0.123-0.065-0.199c0.047-0.076 0.025-0.179-0.049-0.229s-0.083-0.144-0.022-0.208c0.062-0.064 0.062-0.169 0-0.234s-0.052-0.158 0.022-0.208 0.095-0.153 0.049-0.229c-0.047-0.076-0.018-0.165 0.065-0.199s0.125-0.13 0.095-0.214 0.017-0.165 0.104-0.181 0.149-0.101 0.137-0.189 0.051-0.158 0.14-0.155c0.089 0.003 0.167-0.068 0.174-0.156s0.083-0.144 0.169-0.123 0.178-0.031 0.203-0.117 0.111-0.124 0.191-0.085c0.080 0.039 0.18 0.006 0.222-0.072s0.134-0.098 0.205-0.043 0.175 0.044 0.232-0.024 0.151-0.068 0.209 0 0.162 0.079 0.232 0.024 0.162-0.035 0.205 0.043 0.142 0.111 0.222 0.072c0.080-0.039 0.166 0 0.191 0.085s0.116 0.138 0.203 0.117 0.163 0.034 0.169 0.123 0.085 0.159 0.174 0.156c0.089-0.003 0.152 0.067 0.14 0.155s0.050 0.173 0.137 0.189 0.135 0.097 0.104 0.181 0.013 0.18 0.095 0.214 0.111 0.123 0.065 0.199c-0.047 0.076-0.025 0.179 0.049 0.229s0.083 0.144 0.022 0.208-0.063 0.171-0.001 0.235z"></path>
</symbol>
<symbol id="icon-old-phone" viewBox="0 0 20 20">
<path d="M17.256 12.253c-0.096-0.667-0.611-1.187-1.274-1.342-2.577-0.604-3.223-2.088-3.332-3.734-0.457-0.085-1.27-0.177-2.65-0.177s-2.193 0.092-2.65 0.177c-0.109 1.646-0.755 3.13-3.332 3.734-0.663 0.156-1.178 0.675-1.274 1.342l-0.497 3.442c-0.175 1.212 0.715 2.305 1.953 2.305h11.6c1.237 0 2.128-1.093 1.953-2.305l-0.497-3.442zM10 15.492c-1.395 0-2.526-1.12-2.526-2.5s1.131-2.5 2.526-2.5 2.526 1.12 2.526 2.5-1.132 2.5-2.526 2.5zM19.95 6c-0.024-1.5-3.842-3.999-9.95-4-6.109 0.001-9.927 2.5-9.95 4s0.021 3.452 2.535 3.127c2.941-0.381 2.76-1.408 2.76-2.876 0-1.024 2.392-1.271 4.655-1.271s4.654 0.247 4.655 1.271c0 1.468-0.181 2.495 2.76 2.876 2.513 0.325 2.558-1.627 2.535-3.127z"></path>
</symbol>
<symbol id="icon-suitcase" viewBox="0 0 20 20">
<path d="M18 4h-1v15h1c1.1 0 2-0.9 2-2v-11c0-1.1-0.9-2-2-2zM0 6v11c0 1.1 0.899 2 2 2h1v-15h-1c-1.101 0-2 0.9-2 2zM13.5 1.906c-0.681-0.316-1.889-0.906-3.519-0.906-1.633 0-2.8 0.59-3.481 0.906v2.094h-2.5v15h12v-15h-2.5v-2.094zM12 4h-4v-1.336c0.534-0.23 1.078-0.465 1.981-0.465s1.486 0.234 2.019 0.465v1.336z"></path>
</symbol>
</defs>
</svg>
